<svg xmlns="http://www.w3.org/2000/svg" width="40" height="40" viewBox="0 0 16 16">
  <circle cx="8" cy="8" r="8" fill="white"></circle>
  <path fill="#10B981" d="M8 3.5c1.7 0 1.9 0 2.6.04.7.03 1.1.15 1.4.26.3.1.5.22.7.41.19.19.31.39.41.7.11.3.23.7.26 1.4.04.7.04.9.04 2.6s0 1.9-.04 2.6c-.03.7-.15 1.1-.26 1.4-.1.3-.22.5-.41.7-.19.19-.39.31-.7.41-.3.11-.7.23-1.4.26-.7.04-.9.04-2.6.04s-1.9 0-2.6-.04c-.7-.03-1.1-.15-1.4-.26-.3-.1-.5-.22-.7-.41-.19-.19-.31-.39-.41-.7-.11-.3-.23-.7-.26-1.4C3.5 9.9 3.5 9.7 3.5 8s0-1.9.04-2.6c.03-.7.15-1.1.26-1.4.1-.3.22-.5.41-.7.19-.19.39-.31.7-.41.3-.11.7-.23 1.4-.26C6.1 3.5 6.3 3.5 8 3.5zm0-1.5c-1.7 0-1.9 0-2.6.04-.9.04-1.6.2-2.1.42-.6.23-1.1.53-1.6 1.02-.5.49-.79.97-1.02 1.6-.22.56-.38 1.2-.42 2.1C.04 7.1.04 7.3.04 9s0 1.9.04 2.6c.04.9.2 1.6.42 2.1.23.6.53 1.1 1.02 1.6.49.5.97.79 1.6 1.02.56.22 1.2.38 2.1.42.7.04.9.04 2.6.04s1.9 0 2.6-.04c.9-.04 1.6-.2 2.1-.42.6-.23 1.1-.53 1.6-1.02.5-.49.79-.97 1.02-1.6.22-.56.38-1.2.42-2.1.04-.7.04-.9.04-2.6s0-1.9-.04-2.6c-.04-.9-.2-1.6-.42-2.1-.23-.6-.53-1.1-1.02-1.6-.49-.5-.97-.79-1.6-1.02-.56-.22-1.2-.38-2.1-.42C9.9 2 9.7 2 8 2z"></path>
  <path fill="#10B981" d="M8 5.5a2.5 2.5 0 1 0 0 5 2.5 2.5 0 0 0 0-5zm0-1.5a4 4 0 1 1 0 8 4 4 0 0 1 0-8zm3-1a1 1 0 1 0 0 2 1 1 0 0 0 0-2z"></path>
</svg>
